<svg width="78" height="26" viewBox="0 0 78 26" fill="none" xmlns="http://www.w3.org/2000/svg">
  <path d="M22.376 26H16.2412V15.3125H7.15332V26H0.983398V0.40625H7.15332V10.5664H16.2412V0.40625H22.376V26ZM35.8057 16.9648H32.4658V26H26.2959V0.40625H36.3682C39.4033 0.40625 41.7764 1.08008 43.4873 2.42773C45.1982 3.77539 46.0537 5.67969 46.0537 8.14062C46.0537 9.92188 45.6904 11.3984 44.9639 12.5703C44.249 13.7422 43.124 14.6914 41.5889 15.418L46.9326 25.7363V26H40.3232L35.8057 16.9648ZM32.4658 12.2012H36.3682C37.54 12.2012 38.4189 11.8965 39.0049 11.2871C39.6025 10.666 39.9014 9.80469 39.9014 8.70312C39.9014 7.60156 39.6025 6.74023 39.0049 6.11914C38.4072 5.48633 37.5283 5.16992 36.3682 5.16992H32.4658V12.2012ZM57.8838 0.40625L63.5967 18.2129L69.292 0.40625H77.4131V26H71.2256V20.0234L71.8232 7.78906L65.6357 26H61.5576L55.3525 7.77148L55.9502 20.0234V26H49.7803V0.40625H57.8838Z" fill="url(#paint0_linear)" />
  <defs>
    <linearGradient id="paint0_linear" x1="-0.950195" y1="0.499999" x2="80.0498" y2="26" gradientUnits="userSpaceOnUse">
      <stop stopColor="#CC00FF" />
      <stop offset="1" stopColor="#6B00BE" />
    </linearGradient>
  </defs>
</svg>